<svg width="50" height="50" viewBox="0 0 50 50" fill="none" xmlns="http://www.w3.org/2000/svg">
<path d="M16.7708 30.6666L14.6875 28.5833L8.22913 30.6458H8.0208C7.91927 30.6521 7.81756 30.6368 7.72239 30.6009C7.62722 30.565 7.54075 30.5093 7.46871 30.4375L5.9583 28.9479C5.83629 28.8318 5.75821 28.6771 5.73732 28.51C5.71643 28.3429 5.75403 28.1738 5.84371 28.0312L7.60413 25C8.69452 23.1339 10.2157 21.556 12.0406 20.398C13.8654 19.24 15.941 18.5356 18.0937 18.3437L20.6875 18.1146C22.1944 16.3229 23.5833 14.7882 24.8541 13.5104C27.2654 10.9563 30.1437 8.88775 33.3333 7.41665C36.5844 6.20141 40.0413 5.63176 43.5104 5.73957C43.7202 5.74143 43.9215 5.82341 44.0729 5.96873C44.145 6.03499 44.2026 6.11548 44.2421 6.20513C44.2815 6.29477 44.3019 6.39163 44.302 6.48957C44.3732 9.96908 43.7536 13.4282 42.4791 16.6666C41.046 19.8657 39.0006 22.7533 36.4583 25.1666C35.177 26.4583 33.6354 27.8437 31.8541 29.3333L31.625 31.9166C31.438 34.0683 30.7392 36.144 29.5867 37.9706C28.4342 39.7972 26.8615 41.3216 25 42.4166L21.9895 44.1771C21.8708 44.2397 21.7384 44.2719 21.6041 44.2708C21.4048 44.2667 21.2132 44.193 21.0625 44.0625L19.552 42.5416C19.4545 42.4484 19.3852 42.3296 19.3521 42.1988C19.3189 42.068 19.3232 41.9305 19.3645 41.8021L21.375 35.2708L19.3541 33.25M31.8958 29.3333L21.375 35.2708M20.6875 18.1146L14.7395 28.6354M38.9791 15.3125C38.9819 14.1816 38.536 13.0958 37.7393 12.2932C36.9426 11.4906 35.86 11.0367 34.7291 11.0312V11.0312C34.1498 11.0026 33.5708 11.092 33.0271 11.294C32.4834 11.496 31.9864 11.8064 31.5663 12.2062C31.1462 12.6061 30.8117 13.0872 30.5832 13.6203C30.3546 14.1533 30.2368 14.7273 30.2368 15.3073C30.2368 15.8873 30.3546 16.4612 30.5832 16.9943C30.8117 17.5274 31.1462 18.0084 31.5663 18.4083C31.9864 18.8082 32.4834 19.1185 33.0271 19.3205C33.5708 19.5225 34.1498 19.6119 34.7291 19.5833C35.852 19.585 36.9302 19.1432 37.7291 18.3542C38.1311 17.9576 38.4482 17.4835 38.6613 16.9606C38.8744 16.4377 38.979 15.877 38.9687 15.3125H38.9791Z" stroke="#7CB342" stroke-width="2" stroke-linecap="round" stroke-linejoin="round"/>
<path d="M13.5417 36.4583C17.7084 35.6875 25.1042 28.75 25.9688 24.0312C21.2188 24.9375 14.2813 32.2917 13.5417 36.4583Z" stroke="#7CB342" stroke-width="2" stroke-linecap="round" stroke-linejoin="round"/>
</svg>
