<svg width="80" height="80" viewBox="0 0 80 80" fill="none" xmlns="http://www.w3.org/2000/svg">
<g clip-path="url(#clip0_7_81)">
<path d="M35 12.5C35 11.837 35.2634 11.2011 35.7322 10.7322C36.2011 10.2634 36.837 10 37.5 10H72.5C73.163 10 73.7989 10.2634 74.2678 10.7322C74.7366 11.2011 75 11.837 75 12.5V17.5C75 18.163 74.7366 18.7989 74.2678 19.2678C73.7989 19.7366 73.163 20 72.5 20H37.5C36.837 20 36.2011 19.7366 35.7322 19.2678C35.2634 18.7989 35 18.163 35 17.5V12.5ZM2.23517e-07 60C2.23517e-07 56.0218 1.58035 52.2064 4.3934 49.3934C7.20644 46.5803 11.0218 45 15 45C18.9782 45 22.7936 46.5803 25.6066 49.3934C28.4196 52.2064 30 56.0218 30 60C30 63.9782 28.4196 67.7936 25.6066 70.6066C22.7936 73.4196 18.9782 75 15 75C11.0218 75 7.20644 73.4196 4.3934 70.6066C1.58035 67.7936 2.23517e-07 63.9782 2.23517e-07 60ZM35 52.5C35 51.837 35.2634 51.2011 35.7322 50.7322C36.2011 50.2634 36.837 50 37.5 50H72.5C73.163 50 73.7989 50.2634 74.2678 50.7322C74.7366 51.2011 75 51.837 75 52.5V57.5C75 58.163 74.7366 58.7989 74.2678 59.2678C73.7989 59.7366 73.163 60 72.5 60H37.5C36.837 60 36.2011 59.7366 35.7322 59.2678C35.2634 58.7989 35 58.163 35 57.5V52.5ZM35 27.5C35 26.837 35.2634 26.2011 35.7322 25.7322C36.2011 25.2634 36.837 25 37.5 25H62.5C63.163 25 63.7989 25.2634 64.2678 25.7322C64.7366 26.2011 65 26.837 65 27.5C65 28.163 64.7366 28.7989 64.2678 29.2678C63.7989 29.7366 63.163 30 62.5 30H37.5C36.837 30 36.2011 29.7366 35.7322 29.2678C35.2634 28.7989 35 28.163 35 27.5ZM35 67.5C35 66.837 35.2634 66.2011 35.7322 65.7322C36.2011 65.2634 36.837 65 37.5 65H62.5C63.163 65 63.7989 65.2634 64.2678 65.7322C64.7366 66.2011 65 66.837 65 67.5C65 68.163 64.7366 68.7989 64.2678 69.2678C63.7989 69.7366 63.163 70 62.5 70H37.5C36.837 70 36.2011 69.7366 35.7322 69.2678C35.2634 68.7989 35 68.163 35 67.5ZM15 5C13.0302 5 11.0796 5.38799 9.25975 6.14181C7.43986 6.89563 5.78628 8.00052 4.3934 9.3934C3.00052 10.7863 1.89563 12.4399 1.14181 14.2597C0.387986 16.0796 0 18.0302 0 20C0 21.9698 0.387986 23.9204 1.14181 25.7403C1.89563 27.5601 3.00052 29.2137 4.3934 30.6066C5.78628 31.9995 7.43986 33.1044 9.25975 33.8582C11.0796 34.612 13.0302 35 15 35C18.9782 35 22.7936 33.4196 25.6066 30.6066C28.4196 27.7936 30 23.9782 30 20C30 16.0218 28.4196 12.2064 25.6066 9.3934C22.7936 6.58035 18.9782 5 15 5ZM15 27.5C13.0109 27.5 11.1032 26.7098 9.6967 25.3033C8.29018 23.8968 7.5 21.9891 7.5 20C7.5 18.0109 8.29018 16.1032 9.6967 14.6967C11.1032 13.2902 13.0109 12.5 15 12.5C16.9891 12.5 18.8968 13.2902 20.3033 14.6967C21.7098 16.1032 22.5 18.0109 22.5 20C22.5 21.9891 21.7098 23.8968 20.3033 25.3033C18.8968 26.7098 16.9891 27.5 15 27.5Z" fill="#7CB342"/>
</g>
<defs>
<clipPath id="clip0_7_81">
<rect width="80" height="80" fill="white"/>
</clipPath>
</defs>
</svg>
