<svg width="50" height="50" viewBox="0 0 50 50" fill="none" xmlns="http://www.w3.org/2000/svg">
<g clip-path="url(#clip0_8_131)">
<path d="M21.875 7.8125C21.875 7.3981 22.0396 7.00067 22.3326 6.70765C22.6257 6.41462 23.0231 6.25 23.4375 6.25H45.3125C45.7269 6.25 46.1243 6.41462 46.4174 6.70765C46.7104 7.00067 46.875 7.3981 46.875 7.8125V10.9375C46.875 11.3519 46.7104 11.7493 46.4174 12.0424C46.1243 12.3354 45.7269 12.5 45.3125 12.5H23.4375C23.0231 12.5 22.6257 12.3354 22.3326 12.0424C22.0396 11.7493 21.875 11.3519 21.875 10.9375V7.8125ZM6.25 3.125C4.5924 3.125 3.00269 3.78348 1.83058 4.95558C0.65848 6.12769 0 7.7174 0 9.375L0 15.625C0 17.2826 0.65848 18.8723 1.83058 20.0444C3.00269 21.2165 4.5924 21.875 6.25 21.875H12.5C14.1576 21.875 15.7473 21.2165 16.9194 20.0444C18.0915 18.8723 18.75 17.2826 18.75 15.625V9.375C18.75 7.7174 18.0915 6.12769 16.9194 4.95558C15.7473 3.78348 14.1576 3.125 12.5 3.125H6.25ZM6.25 28.125C4.5924 28.125 3.00269 28.7835 1.83058 29.9556C0.65848 31.1277 0 32.7174 0 34.375L0 40.625C0 42.2826 0.65848 43.8723 1.83058 45.0444C3.00269 46.2165 4.5924 46.875 6.25 46.875H12.5C14.1576 46.875 15.7473 46.2165 16.9194 45.0444C18.0915 43.8723 18.75 42.2826 18.75 40.625V34.375C18.75 32.7174 18.0915 31.1277 16.9194 29.9556C15.7473 28.7835 14.1576 28.125 12.5 28.125H6.25ZM8.91875 16.7313C8.77361 16.8768 8.60118 16.9922 8.41136 17.071C8.22153 17.1497 8.01802 17.1903 7.8125 17.1903C7.60698 17.1903 7.40347 17.1497 7.21364 17.071C7.02382 16.9922 6.85139 16.8768 6.70625 16.7313L3.58125 13.6063C3.43598 13.461 3.32074 13.2885 3.24211 13.0987C3.16349 12.9089 3.12303 12.7055 3.12303 12.5C3.12303 12.2945 3.16349 12.0911 3.24211 11.9013C3.32074 11.7115 3.43598 11.539 3.58125 11.3937C3.72652 11.2485 3.89899 11.1332 4.0888 11.0546C4.27861 10.976 4.48205 10.9355 4.6875 10.9355C4.89295 10.9355 5.09639 10.976 5.2862 11.0546C5.47601 11.1332 5.64848 11.2485 5.79375 11.3937L7.8125 13.4156L12.9562 8.26875C13.1015 8.12348 13.274 8.00824 13.4638 7.92962C13.6536 7.85099 13.857 7.81053 14.0625 7.81053C14.268 7.81053 14.4714 7.85099 14.6612 7.92962C14.851 8.00824 15.0235 8.12348 15.1688 8.26875C15.314 8.41402 15.4293 8.58649 15.5079 8.7763C15.5865 8.96611 15.627 9.16955 15.627 9.375C15.627 9.58045 15.5865 9.78389 15.5079 9.9737C15.4293 10.1635 15.314 10.336 15.1688 10.4813L8.91875 16.7313ZM8.91875 41.7313C8.77361 41.8768 8.60118 41.9922 8.41136 42.071C8.22153 42.1497 8.01802 42.1903 7.8125 42.1903C7.60698 42.1903 7.40347 42.1497 7.21364 42.071C7.02382 41.9922 6.85139 41.8768 6.70625 41.7313L3.58125 38.6063C3.28785 38.3129 3.12303 37.9149 3.12303 37.5C3.12303 37.0851 3.28785 36.6871 3.58125 36.3937C3.87465 36.1004 4.27258 35.9355 4.6875 35.9355C5.10242 35.9355 5.50035 36.1004 5.79375 36.3937L7.8125 38.4156L12.9562 33.2687C13.2496 32.9754 13.6476 32.8105 14.0625 32.8105C14.4774 32.8105 14.8754 32.9754 15.1688 33.2687C15.4621 33.5621 15.627 33.9601 15.627 34.375C15.627 34.7899 15.4621 35.1879 15.1688 35.4813L8.91875 41.7313ZM21.875 32.8125C21.875 32.3981 22.0396 32.0007 22.3326 31.7076C22.6257 31.4146 23.0231 31.25 23.4375 31.25H45.3125C45.7269 31.25 46.1243 31.4146 46.4174 31.7076C46.7104 32.0007 46.875 32.3981 46.875 32.8125V35.9375C46.875 36.3519 46.7104 36.7493 46.4174 37.0424C46.1243 37.3354 45.7269 37.5 45.3125 37.5H23.4375C23.0231 37.5 22.6257 37.3354 22.3326 37.0424C22.0396 36.7493 21.875 36.3519 21.875 35.9375V32.8125ZM21.875 17.1875C21.875 16.7731 22.0396 16.3757 22.3326 16.0826C22.6257 15.7896 23.0231 15.625 23.4375 15.625H39.0625C39.4769 15.625 39.8743 15.7896 40.1674 16.0826C40.4604 16.3757 40.625 16.7731 40.625 17.1875C40.625 17.6019 40.4604 17.9993 40.1674 18.2924C39.8743 18.5854 39.4769 18.75 39.0625 18.75H23.4375C23.0231 18.75 22.6257 18.5854 22.3326 18.2924C22.0396 17.9993 21.875 17.6019 21.875 17.1875ZM21.875 42.1875C21.875 41.7731 22.0396 41.3757 22.3326 41.0826C22.6257 40.7896 23.0231 40.625 23.4375 40.625H39.0625C39.4769 40.625 39.8743 40.7896 40.1674 41.0826C40.4604 41.3757 40.625 41.7731 40.625 42.1875C40.625 42.6019 40.4604 42.9993 40.1674 43.2924C39.8743 43.5854 39.4769 43.75 39.0625 43.75H23.4375C23.0231 43.75 22.6257 43.5854 22.3326 43.2924C22.0396 42.9993 21.875 42.6019 21.875 42.1875Z" fill="#7CB342"/>
</g>
<defs>
<clipPath id="clip0_8_131">
<rect width="50" height="50" fill="white"/>
</clipPath>
</defs>
</svg>
