<svg width="50" height="50" viewBox="0 0 50 50" fill="none" xmlns="http://www.w3.org/2000/svg">
<path d="M15.3647 34.9604L17.9688 31.7062L9.5855 24.9999L17.9688 18.2937L15.3647 15.0395L4.948 23.3729C4.70393 23.568 4.50689 23.8156 4.37148 24.0973C4.23608 24.3789 4.16577 24.6874 4.16577 24.9999C4.16577 25.3125 4.23608 25.621 4.37148 25.9026C4.50689 26.1843 4.70393 26.4319 4.948 26.627L15.3647 34.9604ZM34.6355 15.0395L32.0313 18.2937L40.4147 24.9999L32.0313 31.7062L34.6355 34.9604L45.0522 26.627C45.2962 26.4319 45.4933 26.1843 45.6287 25.9026C45.7641 25.621 45.8344 25.3125 45.8344 24.9999C45.8344 24.6874 45.7641 24.3789 45.6287 24.0973C45.4933 23.8156 45.2962 23.568 45.0522 23.3729L34.6355 15.0395ZM31.2001 6.69994L22.8667 44.1999L18.798 43.2958L27.1313 5.79578L31.2001 6.69994Z" fill="#7CB342"/>
</svg>
