<svg width="70" height="70" viewBox="0 0 70 70" fill="none" xmlns="http://www.w3.org/2000/svg">
<path d="M64.9841 42.2034L58.4216 35.6409C58.0113 35.2308 57.455 35.0005 56.875 35.0005C56.295 35.0005 55.7387 35.2308 55.3284 35.6409L35 55.9694V65.625H44.6556L64.9841 45.2966C65.3942 44.8863 65.6245 44.33 65.6245 43.75C65.6245 43.17 65.3942 42.6137 64.9841 42.2034ZM42.8444 61.25H39.375V57.7806L50.3125 46.8431L53.7819 50.3125L42.8444 61.25ZM56.875 47.2194L53.4056 43.75L56.875 40.2806L60.3444 43.75L56.875 47.2194ZM65.625 8.75H50.3125V13.125H58.1569L41.5625 29.7194L32.1716 20.3284C31.7613 19.9183 31.205 19.688 30.625 19.688C30.045 19.688 29.4887 19.9183 29.0784 20.3284L13.125 36.2819L16.2181 39.375L30.625 24.9681L40.0159 34.3591C40.4262 34.7692 40.9825 34.9995 41.5625 34.9995C42.1425 34.9995 42.6988 34.7692 43.1091 34.3591L61.25 16.2181V24.0625H65.625V8.75Z" fill="#7CB342"/>
<path d="M8.75 4.375H4.375V61.25C4.375 62.4103 4.83594 63.5231 5.65641 64.3436C6.47688 65.1641 7.58968 65.625 8.75 65.625H26.25V61.25H8.75V4.375Z" fill="#7CB342"/>
</svg>
