<svg width="80" height="80" viewBox="0 0 80 80" fill="none" xmlns="http://www.w3.org/2000/svg">
<path d="M19.9999 48.335C19.9999 49.2191 19.6487 50.0669 19.0236 50.6921C18.3985 51.3172 17.5506 51.6684 16.6666 51.6684C15.7825 51.6684 14.9347 51.3172 14.3096 50.6921C13.6844 50.0669 13.3333 49.2191 13.3333 48.335V33.335C13.3333 32.451 13.6844 31.6031 14.3096 30.978C14.9347 30.3529 15.7825 30.0017 16.6666 30.0017C17.5506 30.0017 18.3985 30.3529 19.0236 30.978C19.6487 31.6031 19.9999 32.451 19.9999 33.335V48.335ZM66.6666 48.335C66.6666 49.2191 66.3154 50.0669 65.6903 50.6921C65.0652 51.3172 64.2173 51.6684 63.3333 51.6684C62.4492 51.6684 61.6013 51.3172 60.9762 50.6921C60.3511 50.0669 59.9999 49.2191 59.9999 48.335V33.335C59.9999 32.451 60.3511 31.6031 60.9762 30.978C61.6013 30.3529 62.4492 30.0017 63.3333 30.0017C64.2173 30.0017 65.0652 30.3529 65.6903 30.978C66.3154 31.6031 66.6666 32.451 66.6666 33.335V48.335ZM36.6666 66.6667C36.6666 67.5508 36.3154 68.3986 35.6903 69.0237C35.0652 69.6489 34.2173 70 33.3333 70C32.4492 70 31.6014 69.6489 30.9762 69.0237C30.3511 68.3986 29.9999 67.5508 29.9999 66.6667V51.6667C29.9999 50.7827 30.3511 49.9348 30.9762 49.3097C31.6014 48.6846 32.4492 48.3334 33.3333 48.3334C34.2173 48.3334 35.0652 48.6846 35.6903 49.3097C36.3154 49.9348 36.6666 50.7827 36.6666 51.6667V66.6667ZM49.9999 66.6667C49.9999 67.5508 49.6487 68.3986 49.0236 69.0237C48.3985 69.6489 47.5506 70 46.6666 70C45.7825 70 44.9347 69.6489 44.3096 69.0237C43.6844 68.3986 43.3333 67.5508 43.3333 66.6667V51.6667C43.3333 50.7827 43.6844 49.9348 44.3096 49.3097C44.9347 48.6846 45.7825 48.3334 46.6666 48.3334C47.5506 48.3334 48.3985 48.6846 49.0236 49.3097C49.6487 49.9348 49.9999 50.7827 49.9999 51.6667V66.6667Z" fill="#7CB342"/>
<path d="M23.3333 30.0016V54.9999C23.3333 55.884 23.6844 56.7318 24.3096 57.3569C24.9347 57.9821 25.7825 58.3333 26.6666 58.3333H53.3333C54.2173 58.3333 55.0652 57.9821 55.6903 57.3569C56.3154 56.7318 56.6666 55.884 56.6666 54.9999V30.0016H23.3333ZM39.9999 13.3333C29.9999 13.3333 23.9083 19.4083 23.3333 26.6666H56.6666C56.0899 19.4083 49.9999 13.3333 39.9999 13.3333ZM33.3333 22.6633C32.8912 22.6633 32.4673 22.4877 32.1547 22.1751C31.8422 21.8625 31.6666 21.4386 31.6666 20.9966C31.6666 20.5546 31.8422 20.1306 32.1547 19.8181C32.4673 19.5055 32.8912 19.3299 33.3333 19.3299C33.7753 19.3299 34.1992 19.5055 34.5118 19.8181C34.8243 20.1306 34.9999 20.5546 34.9999 20.9966C34.9999 21.4386 34.8243 21.8625 34.5118 22.1751C34.1992 22.4877 33.7753 22.6633 33.3333 22.6633ZM46.6666 22.6633C46.2246 22.6633 45.8006 22.4877 45.4881 22.1751C45.1755 21.8625 44.9999 21.4386 44.9999 20.9966C44.9999 20.5546 45.1755 20.1306 45.4881 19.8181C45.8006 19.5055 46.2246 19.3299 46.6666 19.3299C47.1086 19.3299 47.5325 19.5055 47.8451 19.8181C48.1577 20.1306 48.3333 20.5546 48.3333 20.9966C48.3333 21.4386 48.1577 21.8625 47.8451 22.1751C47.5325 22.4877 47.1086 22.6633 46.6666 22.6633Z" fill="#7CB342"/>
<path d="M50 11.6667L47.2233 15.8317M30 11.6667L32.2217 15.1367" stroke="#7CB342" stroke-width="0.833333" stroke-linecap="round"/>
</svg>
