<svg width="70" height="70" viewBox="0 0 70 70" fill="none" xmlns="http://www.w3.org/2000/svg">
<path d="M33.8538 6.83089C34.1722 6.55429 34.5797 6.40198 35.0015 6.40198C35.4233 6.40198 35.8308 6.55429 36.1492 6.83089L41.8309 11.7659C42.0078 11.9198 42.2139 12.0365 42.4369 12.1091C42.6599 12.1818 42.8952 12.2089 43.1288 12.1888L50.6305 11.5355C51.0505 11.4994 51.4694 11.6162 51.8102 11.8643C52.151 12.1123 52.3908 12.4751 52.4855 12.8859L54.183 20.2184C54.2354 20.4475 54.3334 20.6638 54.4712 20.8542C54.609 21.0446 54.7838 21.2053 54.985 21.3267L61.4367 25.2059C61.7977 25.4233 62.0682 25.7636 62.1984 26.1644C62.3286 26.5652 62.3098 26.9995 62.1455 27.3876L59.2055 34.3176C59.114 34.5335 59.0669 34.7656 59.0669 35.0001C59.0669 35.2345 59.114 35.4666 59.2055 35.6826L62.1455 42.6126C62.3106 43.0009 62.3298 43.4359 62.1996 43.8374C62.0693 44.2388 61.7984 44.5797 61.4367 44.7971L54.985 48.6763C54.7841 48.7974 54.6095 48.9576 54.4717 49.1475C54.3339 49.3374 54.2357 49.5531 54.183 49.7817L52.4855 57.1142C52.3908 57.525 52.151 57.8878 51.8102 58.1359C51.4694 58.384 51.0505 58.5007 50.6305 58.4646L43.1288 57.8113C42.8953 57.7908 42.6602 57.8175 42.4372 57.8896C42.2143 57.9618 42.0081 58.078 41.8309 58.2313L36.1463 63.1692C35.8279 63.4458 35.4203 63.5981 34.9986 63.5981C34.5768 63.5981 34.1693 63.4458 33.8509 63.1692L28.1692 58.2313C27.992 58.078 27.7858 57.9618 27.5629 57.8896C27.3399 57.8175 27.1047 57.7908 26.8713 57.8113L19.3696 58.4646C18.9496 58.5007 18.5307 58.384 18.1899 58.1359C17.8491 57.8878 17.6093 57.525 17.5146 57.1142L15.8171 49.7817C15.7647 49.5526 15.6667 49.3364 15.5289 49.1459C15.3911 48.9555 15.2163 48.7948 15.015 48.6734L8.56338 44.7942C8.20236 44.5768 7.9319 44.2365 7.8017 43.8357C7.6715 43.4349 7.69029 43.0006 7.85463 42.6126L10.7946 35.6826C10.8861 35.4666 10.9332 35.2345 10.9332 35.0001C10.9332 34.7656 10.8861 34.5335 10.7946 34.3176L7.85463 27.3876C7.68948 26.9992 7.67026 26.5642 7.8005 26.1627C7.93074 25.7613 8.20167 25.4204 8.56338 25.203L15.015 21.3238C15.216 21.2027 15.3906 21.0425 15.5284 20.8526C15.6662 20.6627 15.7644 20.447 15.8171 20.2184L17.5146 12.8859C17.6093 12.4751 17.8491 12.1123 18.1899 11.8643C18.5307 11.6162 18.9496 11.4994 19.3696 11.5355L26.8713 12.1888C27.1049 12.2089 27.3402 12.1818 27.5632 12.1091C27.7862 12.0365 27.9922 11.9198 28.1692 11.7659L33.8538 6.83089V6.83089Z" stroke="#7CB342" stroke-width="5"/>
<path d="M26.25 37.9167L32.0833 43.7501L46.6667 29.1667" stroke="#7CB342" stroke-width="5" stroke-linecap="round" stroke-linejoin="round"/>
</svg>
