<svg width="80" height="80" viewBox="0 0 80 80" fill="none" xmlns="http://www.w3.org/2000/svg">
<path d="M46.0667 46.6667H32.2001C31.8667 44.4667 31.6667 42.2667 31.6667 40.0001C31.6667 37.7334 31.8667 35.5001 32.2001 33.3334H47.8001C48.1001 35.5001 48.3334 37.7334 48.3334 40.0001C48.3334 41.6667 48.2001 43.3334 48.0001 44.8667C50.0001 43.2001 52.4001 41.9001 55.0001 41.0667V40.0001C55.0001 37.7334 54.8001 35.5334 54.5334 33.3334H65.8001C66.3334 35.4667 66.6667 37.7001 66.6667 40.0001V40.6001C69.0001 41.1667 71.1667 42.1001 73.1667 43.3334C73.3334 42.2667 73.3334 41.1334 73.3334 40.0001C73.3334 21.6667 58.3334 6.66675 40.0001 6.66675C21.5667 6.66675 6.66675 21.6667 6.66675 40.0001C6.66675 58.3334 21.6667 73.3334 40.0001 73.3334C41.1334 73.3334 42.2667 73.3334 43.3334 73.1667C41.9667 70.9668 40.9667 68.5001 40.4334 65.8334C40.3001 66.0667 40.1667 66.3001 40.0001 66.5334C37.2334 62.5334 35.0001 58.1001 33.6334 53.3334H41.6667C42.7001 50.8334 44.2001 48.6001 46.0667 46.6667ZM63.0667 26.6667H53.2334C52.1902 22.5383 50.6453 18.5531 48.6334 14.8001C54.7667 16.9001 59.8667 21.1334 63.0667 26.6667ZM40.0001 13.4334C42.7667 17.4334 45.0001 21.9001 46.3667 26.6667H33.6334C35.0001 21.9001 37.2334 17.4334 40.0001 13.4334ZM14.2001 46.6667C13.6667 44.5334 13.3334 42.3001 13.3334 40.0001C13.3334 37.7001 13.6667 35.4667 14.2001 33.3334H25.4667C25.2001 35.5334 25.0001 37.7334 25.0001 40.0001C25.0001 42.2667 25.2001 44.4667 25.4667 46.6667H14.2001ZM16.9334 53.3334H26.6667C27.8334 57.5001 29.3334 61.5001 31.3334 65.2001C25.2622 63.1056 20.1496 58.8925 16.9334 53.3334ZM26.6667 26.6667H16.9334C20.1296 21.0908 25.2494 16.8717 31.3334 14.8001C29.3334 18.5001 27.8334 22.5001 26.6667 26.6667ZM69.4334 52.2334L73.3334 48.3334V61.6667H60.0001L65.9001 55.7667C64.6995 54.5657 63.1607 53.7602 61.4896 53.458C59.8185 53.1557 58.095 53.3712 56.5498 54.0756C55.0046 54.78 53.7115 55.9397 52.8436 57.3993C51.9757 58.859 51.5745 60.5489 51.6937 62.2429C51.8128 63.9369 52.4467 65.5541 53.5103 66.8779C54.574 68.2017 56.0167 69.1689 57.6453 69.6501C59.2739 70.1312 61.0106 70.1034 62.6229 69.5702C64.2352 69.037 65.6461 68.024 66.6667 66.6667H72.3667C71.3738 69.1322 69.665 71.2438 67.4608 72.7291C65.2566 74.2144 62.658 75.0054 60.0001 75.0001C52.6334 75.0001 46.6667 69.0334 46.6667 61.6667C46.6667 54.3001 52.6334 48.3334 60.0001 48.3334C63.7001 48.3334 67.0334 49.8334 69.4334 52.2334Z" fill="#7CB342"/>
</svg>
